<?xml version="1.0" ?><svg id="Layer_1" style="enable-background:new 0 0 65 65;" version="1.1" viewBox="0 0 65 65" xml:space="preserve" xmlns="http://www.w3.org/2000/svg" xmlns:xlink="http://www.w3.org/1999/xlink"><style type="text/css">
	.st0{fill:#1C1F20;}
</style><g><path class="st0" d="M1.4,0.5c-0.6,0-1,0.4-1,1v13c0,0.6,0.4,1,1,1s1-0.4,1-1v-13C2.4,0.9,2,0.5,1.4,0.5z"/><path class="st0" d="M1.4,17.5c-0.6,0-1,0.4-1,1v1c0,0.6,0.4,1,1,1s1-0.4,1-1v-1C2.4,17.9,2,17.5,1.4,17.5z"/><path class="st0" d="M46.6,2.5h17c0.6,0,1-0.4,1-1s-0.4-1-1-1h-17c-0.6,0-1,0.4-1,1S46,2.5,46.6,2.5z"/><path class="st0" d="M39.6,2.5h3c0.6,0,1-0.4,1-1s-0.4-1-1-1h-3c-0.6,0-1,0.4-1,1S39,2.5,39.6,2.5z"/><path class="st0" d="M63.4,60.5h-1v-1c0-0.6-0.4-1-1-1s-1,0.4-1,1v1h-1c-0.6,0-1,0.4-1,1s0.4,1,1,1h1v1c0,0.6,0.4,1,1,1s1-0.4,1-1   v-1h1c0.6,0,1-0.4,1-1S64,60.5,63.4,60.5z"/><path class="st0" d="M32.4,11.5c-7.2,0-13,5.8-13,13s5.8,13,13,13s13-5.8,13-13S39.6,11.5,32.4,11.5z M29.4,30.5v-12l9.1,6   L29.4,30.5z"/><path class="st0" d="M59.4,4.5h-54v40h54V4.5z M32.4,39.5c-8.3,0-15-6.7-15-15s6.7-15,15-15s15,6.7,15,15S40.7,39.5,32.4,39.5z"/><path class="st0" d="M59.4,46.5h-54v12h54V46.5z M15.5,53.5h-4.7c-0.6,0-1-0.5-1-1c0-0.6,0.4-1,1-1h4.7c-0.1,0.3-0.1,0.7-0.1,1   C15.4,52.8,15.5,53.2,15.5,53.5z M20.4,55.5c-1.7,0-3-1.3-3-3c0-1.7,1.3-3,3-3c1.7,0,3,1.3,3,3C23.4,54.2,22.1,55.5,20.4,55.5z    M54.4,53.5H25.3c0.1-0.3,0.1-0.7,0.1-1c0-0.3,0-0.7-0.1-1h29.1c0.6,0,1,0.4,1,1C55.4,53.1,55,53.5,54.4,53.5z"/></g></svg>